<svg width="43" height="27" viewBox="0 0 43 27" fill="none" xmlns="http://www.w3.org/2000/svg">
<g clip-path="url(#clip0_1492:372)">
<path d="M41.2023 0.670898H1.61608C0.98849 0.670898 0.40918 1.25958 0.40918 1.89731V25.4445C0.40918 26.1313 0.98849 26.6709 1.61608 26.6709H41.2023C41.8781 26.6709 42.4092 26.1313 42.4092 25.4445V1.89731C42.4092 1.21052 41.8781 0.670898 41.2023 0.670898ZM1.85746 6.7539L12.3816 14.3577L1.85746 24.169V6.7539ZM2.91952 25.1992L13.5402 15.2407L20.9747 20.6369C21.2161 20.8331 21.554 20.8331 21.7954 20.6369L29.2299 15.2407L39.8506 25.1992H2.91952ZM40.9609 24.169L30.4368 14.3577L40.9609 6.7539V24.169ZM40.9609 4.9388L21.4092 19.1652L1.85746 4.9388V2.1426H40.9609V4.9388Z" fill="#F4F4F4"/>
</g>
<defs>
<clipPath id="clip0_1492:372">
<rect width="42" height="26" fill="white" transform="translate(0.40918 0.652344)"/>
</clipPath>
</defs>
</svg>
