<svg xmlns="http://www.w3.org/2000/svg" viewBox="0 0 1523.37 286.99"><g id="Layer_2" data-name="Layer 2"><g id="Layer_1-2" data-name="Layer 1"><polygon points="0 279.8 68.44 279.8 68.44 173.18 149.73 173.18 149.73 110.41 68.44 110.41 68.44 62.77 152.76 62.77 152.76 0 0 0 0 279.8"/><path d="M324.16,92.26h-.76c-12.48-20.8-38.19-29.49-61.25-29.49-63.15,0-105.5,50.66-105.5,111.92,0,62.39,40.84,112.3,105.5,112.3,22.68,0,49.91-8.32,61.25-29.87h.76V279.8h62.76V70H324.16ZM271.6,228.38c-29.49,0-52.18-23.82-52.18-52.94,0-29.87,21.17-54.07,51.8-54.07s52.94,22.69,52.94,53.32C324.16,204.94,302.23,228.38,271.6,228.38Z"/><path d="M582.33,73c-14-6.43-29.11-10.21-44.24-10.21-23.44,0-44.62,6.42-60.87,23.82V0H414.45V279.8h60.12V257.49h.76c11,20.42,38.56,29.5,60.12,29.5,65.41,0,105.87-50.29,105.87-113.44C641.32,130.07,622.79,91.88,582.33,73ZM526,228.38c-30.62,0-51-24.2-51-54.07,0-29.49,22.31-52.94,52.18-52.94,29.49,0,51.42,24.58,51.42,53.32C578.55,204.56,556.24,228.38,526,228.38Z"/><path d="M826,73c-14-6.43-29.12-10.21-44.24-10.21-23.44,0-44.62,6.42-60.88,23.82V0H658.07V279.8h60.12V257.49h.75c11,20.42,38.57,29.5,60.12,29.5,65.42,0,105.88-50.29,105.88-113.44C884.94,130.07,866.41,91.88,826,73Zm-56.34,155.4c-30.63,0-51.05-24.2-51.05-54.07,0-29.49,22.31-52.94,52.18-52.94,29.5,0,51.43,24.58,51.43,53.32C822.17,204.56,799.86,228.38,769.61,228.38Z"/><rect x="902.18" width="62.77" height="47.64"/><rect x="902.18" y="69.95" width="62.77" height="209.85"/><path d="M1149.23,92.26h-.75c-12.48-20.8-38.19-29.49-61.26-29.49-63.14,0-105.49,50.66-105.49,111.92,0,62.39,40.84,112.3,105.49,112.3,22.69,0,49.91-8.32,61.26-29.87h.75V279.8H1212V70h-62.77Zm-52.55,136.12c-29.5,0-52.18-23.82-52.18-52.94,0-29.87,21.17-54.07,51.8-54.07s52.93,22.69,52.93,53.32C1149.23,204.94,1127.3,228.38,1096.68,228.38Z"/><path d="M1409.68,80.92c-13.61-11.35-35.92-18.15-53.69-18.15-25.34,0-43.87,7.94-57.1,29.49h-.76V70h-58.6V279.8h62.76V165.61c0-25,6.81-43.86,35.92-43.86,28.36,0,32.9,20,32.9,43.49V279.8h62.77V148.6C1433.88,124,1429.72,97.55,1409.68,80.92Z"/><rect x="1460.61" width="62.77" height="47.64"/><rect x="1460.61" y="69.95" width="62.77" height="209.85"/></g></g></svg>