<svg xmlns="http://www.w3.org/2000/svg" viewBox="0 0 2899 287"><defs><style>.cls-1{fill:#fff;}</style></defs><g id="Layer_2" data-name="Layer 2"><g id="Layer_1-2" data-name="Layer 1"><g id="Layer_2-2" data-name="Layer 2"><g id="Layer_1-2-2" data-name="Layer 1-2"><path class="cls-1" d="M229.51,279.8l2.27-209.47-.75-.76L171.29,279.8H124L64.28,69.57l-.76.76L65.79,279.8H0V0H91.88l55.58,184.14h.76L203.05,0h92.26V279.8Z"/><path class="cls-1" d="M483.64,279.8V257.12h-.75C471.54,278.67,444.32,287,421.63,287,357,287,316.14,237.09,316.14,174.7c0-61.26,42.35-111.92,105.49-111.92,23.07,0,48.78,8.69,61.26,29.49h.75V70h62.77V279.8ZM430.71,121.37c-30.63,0-51.8,24.2-51.8,54.07,0,29.12,22.68,52.94,52.18,52.94,30.62,0,52.55-23.44,52.55-53.69C483.64,144.06,461.34,121.37,430.71,121.37Z"/><path class="cls-1" d="M651.07,117.59V279.8H588.31V117.59h-31V70h31V0h62.76V70h30.25v47.64Z"/><path class="cls-1" d="M772.52,117.59V279.8H709.76V117.59h-31V70h31V0h62.76V70h30.25v47.64Z"/><path class="cls-1" d="M1015.76,194H858.47c3.78,25,24.57,39.7,49.15,39.7,17,0,28-6.8,38.19-19.66h64.28c-18.15,42-55.2,72.6-102.47,72.6a111.34,111.34,0,0,1-111.16-111.2c0-60.87,48.4-112.67,110-112.67,64.28,0,110.78,51.42,110.78,114.56A81.8,81.8,0,0,1,1015.76,194ZM906.87,115.7c-22.69,0-42.73,13.24-47.65,35.92h95.29C949.59,128.94,929.55,115.7,906.87,115.7Z"/><path class="cls-1" d="M1135.51,286.23c-64.28,0-113-47.26-113-111.54s48.77-111.55,113-111.55,113.06,47.27,113.06,111.55S1199.79,286.23,1135.51,286.23Zm0-164.48c-29.11,0-50.29,24.58-50.29,52.94s21.18,52.93,50.29,52.93,50.29-24.57,50.29-52.93-21.17-52.94-50.29-52.94Z"/><path class="cls-1" d="M1444.05,62.77v47.64h81.29v62.77h-81.29V279.8h-68.44V0h152.75V62.77Z"/><path class="cls-1" d="M1699.76,279.8V257.12H1699c-11.35,21.55-38.57,29.87-61.26,29.87-64.66,0-105.49-49.91-105.49-112.3,0-61.26,42.35-111.92,105.49-111.92,23.07,0,48.78,8.69,61.26,29.49h.75V70h62.77V279.8Zm-52.93-158.43c-30.63,0-51.8,24.2-51.8,54.07,0,29.12,22.68,52.94,52.17,52.94,30.63,0,52.56-23.44,52.56-53.69C1699.76,144.06,1677.45,121.37,1646.83,121.37Z"/><path class="cls-1" d="M1911.05,287c-21.55,0-49.15-9.08-60.12-29.5h-.75v22.3h-60.12V0h62.76V86.59c16.26-17.4,37.44-23.82,60.88-23.82,15.12,0,30.25,3.78,44.24,10.21,40.46,18.9,59,57.09,59,100.57C2016.92,236.7,1976.47,287,1911.05,287Zm-8.32-165.62c-29.87,0-52.18,23.45-52.18,52.94,0,29.87,20.42,54.07,51,54.07,30.25,0,52.56-23.82,52.56-53.69.05-28.7-21.88-53.33-51.38-53.33Z"/><path class="cls-1" d="M2154.67,287c-21.55,0-49.16-9.08-60.12-29.5h-.76v22.3h-60.12V0h62.77V86.59c16.26-17.4,37.43-23.82,60.88-23.82,15.12,0,30.25,3.78,44.24,10.21,40.45,18.9,59,57.09,59,100.57C2260.54,236.7,2220.08,287,2154.67,287Zm-8.32-165.62c-29.87,0-52.18,23.45-52.18,52.94,0,29.87,20.42,54.07,51,54.07,30.25,0,52.55-23.82,52.55-53.69.05-28.7-21.88-53.33-51.37-53.33Z"/><path class="cls-1" d="M2277.78,47.64V0h62.77V47.64Zm0,232.16V70h62.77V279.8Z"/><path class="cls-1" d="M2524.84,279.8V257.12h-.76c-11.34,21.55-38.56,29.87-61.25,29.87-64.66,0-105.49-49.91-105.49-112.3,0-61.26,42.34-111.92,105.49-111.92,23.07,0,48.78,8.69,61.25,29.49h.76V70h62.77V279.8Zm-52.93-158.43c-30.63,0-51.81,24.2-51.81,54.07,0,29.12,22.69,52.94,52.18,52.94,30.63,0,52.56-23.44,52.56-53.69,0-30.63-22.31-53.32-52.93-53.32Z"/><path class="cls-1" d="M2746.72,279.8V165.24c0-23.45-4.54-43.49-32.9-43.49-29.11,0-35.92,18.91-35.92,43.86V279.8h-62.77V70h58.61V92.26h.76c13.23-21.55,31.76-29.49,57.09-29.49,17.77,0,40.08,6.8,53.69,18.15,20,16.63,24.2,43.1,24.2,67.68V279.8Z"/><path class="cls-1" d="M2836.21,47.64V0H2899V47.64Zm0,232.16V70H2899V279.8Z"/></g></g></g></g></svg>