<svg xmlns="http://www.w3.org/2000/svg" viewBox="0 0 1248.57 286.99"><g id="Layer_2" data-name="Layer 2"><g id="Layer_1-2" data-name="Layer 1"><polygon points="148.22 184.14 147.46 184.14 91.88 0 0 0 0 279.8 65.79 279.8 63.52 70.33 64.28 69.57 124.02 279.8 171.28 279.8 231.03 69.57 231.78 70.33 229.51 279.8 295.31 279.8 295.31 0 203.05 0 148.22 184.14"/><path d="M483.64,92.26h-.75c-12.48-20.8-38.19-29.49-61.26-29.49-63.14,0-105.49,50.66-105.49,111.92C316.14,237.08,357,287,421.63,287c22.69,0,49.91-8.32,61.26-29.87h.75V279.8h62.77V70H483.64ZM431.09,228.38c-29.5,0-52.18-23.82-52.18-52.94,0-29.87,21.17-54.07,51.8-54.07s52.93,22.69,52.93,53.32C483.64,204.94,461.71,228.38,431.09,228.38Z"/><polygon points="802.77 69.95 772.52 69.95 772.52 0 709.76 0 709.76 69.95 681.32 69.95 678.75 69.95 651.07 69.95 651.07 0 588.31 0 588.31 69.95 557.3 69.95 557.3 117.59 588.31 117.59 588.31 279.8 651.07 279.8 651.07 117.59 678.75 117.59 681.32 117.59 709.76 117.59 709.76 279.8 772.52 279.8 772.52 117.59 802.77 117.59 802.77 69.95"/><path d="M906.49,62.77c-61.63,0-110,51.8-110,112.67A111.34,111.34,0,0,0,907.62,286.61c47.27,0,84.32-30.63,102.47-72.6H945.81c-10.21,12.86-21.17,19.66-38.19,19.66-24.58,0-45.37-14.74-49.15-39.7h157.29a82.11,82.11,0,0,0,1.51-16.64C1017.27,114.19,970.77,62.77,906.49,62.77Zm-47.27,88.85c4.92-22.68,25-35.92,47.65-35.92s42.72,13.24,47.64,35.92Z"/><path d="M1135.51,63.14c-64.28,0-113,47.27-113,111.55s48.77,111.54,113,111.54S1248.57,239,1248.57,174.69,1199.79,63.14,1135.51,63.14Zm0,164.48c-29.11,0-50.29-24.57-50.29-52.93s21.18-52.94,50.29-52.94,50.29,24.58,50.29,52.94S1164.63,227.62,1135.51,227.62Z"/></g></g></svg>