<svg width="36" height="39" viewBox="0 0 36 39" fill="none" xmlns="http://www.w3.org/2000/svg">
<g clip-path="url(#clip0_1492:369)">
<path d="M26.697 38.6799C26.3914 38.6799 26.2385 38.6799 25.9328 38.6799C24.4045 38.5202 22.2647 38.2009 20.4307 37.2429C11.566 32.1337 5.14682 24.9488 1.4787 15.6883C-0.202524 11.537 0.103153 7.86476 2.24289 4.67148C3.31276 3.07484 4.99398 1.9572 6.21669 1.15888C7.59223 0.200894 8.96778 0.839549 9.73197 2.75552C10.4962 4.67148 11.4132 6.42778 12.3302 8.02442C14.1643 11.2177 13.7058 13.1337 10.8018 15.2093C10.4962 15.369 10.0376 15.6883 9.57913 15.848L9.4263 16.0076C11.4132 22.3942 15.2342 26.5454 20.8892 28.9404C21.042 28.7807 21.1949 28.6211 21.1949 28.4614C21.6534 27.8227 22.1119 27.0244 22.7232 26.5454C24.4045 24.6295 26.0857 24.4698 28.2254 26.0664C29.9066 27.1841 31.5879 28.3017 33.2691 29.4194L33.8804 29.8984C34.6446 30.3774 35.8673 31.6547 34.6446 33.89C33.1162 36.9236 30.2123 38.6799 26.697 38.6799ZM7.4394 2.27652C7.28656 2.27652 7.13372 2.27652 6.98088 2.43619C5.91101 3.07484 4.38263 4.19249 3.4656 5.4698C1.17302 8.98241 1.93721 12.495 2.85424 15.0496C6.52237 23.8311 12.6359 30.8564 21.042 35.6463C22.2647 36.4446 24.0988 36.9236 25.9328 36.9236C29.2953 37.0832 31.8935 35.8059 33.5748 32.932C34.1861 31.8143 33.8804 31.495 33.2691 31.016L32.5049 30.6967C30.8237 29.579 28.9896 28.4614 27.3084 27.3437C26.5442 26.8648 25.9328 26.5454 25.4743 26.5454C25.1686 26.5454 24.5573 26.7051 23.6403 27.5034C23.1818 27.9824 22.7232 28.6211 22.2647 29.2597C21.959 29.579 21.8062 29.8984 21.5005 30.2177C21.3477 30.537 20.8892 30.537 20.5835 30.537C14.1643 28.1421 9.88481 23.1925 7.74507 15.848C7.59223 15.5286 7.74507 15.2093 8.05075 15.0496L8.81494 14.5706C9.27346 14.2513 9.57913 14.0916 10.0376 13.7723C12.3302 12.1757 12.4831 11.2177 11.1075 8.82274C10.0376 7.06644 9.27346 5.31014 8.35643 3.39417C8.20359 2.91518 7.74507 2.27652 7.4394 2.27652Z" fill="#F4F4F4"/>
</g>
<defs>
<clipPath id="clip0_1492:369">
<rect width="35" height="38" fill="white" transform="translate(0.40918 0.679688)"/>
</clipPath>
</defs>
</svg>
